<svg xmlns="http://www.w3.org/2000/svg" xmlns:svg="http://www.w3.org/2000/svg" xmlns:xlink="http://www.w3.org/1999/xlink" version="1.0" height="750.3999987602234pt" width="695.797pt" viewBox="280 122 703.797 756.3999987602234" ><defs><style type="text/css">
            @font-face {
                font-family: 'noto_regular';
                src: url('https://app.creately.com/diagram/assets/fonts/noto/noto-regular.woff') format('woff'),
                     url('https://app.creately.com/diagram/assets/fonts/noto/noto-regular.woff2') format('woff2');
                font-weight: normal;
                font-style: normal;
            }
        p {
            margin: 0;
        }
        </style></defs><defs><style>
            span{ display: inline-block; }
        </style></defs><g id="z3cg7skht2"><g transform="translate(500 125)"><path d="M 0.97929447889328,30.199999380111695 C 0.9792933082975462,53.23739030060398 106.57988055066723,67.63575993100478 191.06035151515871,56.11706471017024 C 230.26787547835795,50.771219525601104 254.42070615974956,40.89168997147258 254.42070561647415,30.199999380111695 C 254.4207067870699,7.162608459619415 148.82011954470025,-7.235761170781398 64.33964858020875,4.282934050053148 C 25.132124617009477,9.62877923462228 0.9792939356178962,19.50830878875081 0.97929447889328,30.199999380111695" fill="rgb(246, 246, 246)" stroke="rgb(98, 98, 98)" stroke-width="1.5" vector-effect="non-scaling-stroke"/></g><g transform="translate(605.2, 144.65) rotate(0, 0, 0)" width="46" height="19"><text text-decoration="none" x="0" fill="#000000" font-size="11pt" font-family="Arial"  y="15">Login&#160;</text><text text-decoration="none" x="41" fill="#4b4b4b" font-size="10pt" font-family="noto_regular"  y="15"></text></g></g><g id="2dex5ojjav"><g transform="translate(500 200)"><path d="M 0.97929447889328,30.199999380111695 C 0.9792933082975462,53.23739030060398 106.57988055066723,67.63575993100478 191.06035151515871,56.11706471017024 C 230.26787547835795,50.771219525601104 254.42070615974956,40.89168997147258 254.42070561647415,30.199999380111695 C 254.4207067870699,7.162608459619415 148.82011954470025,-7.235761170781398 64.33964858020875,4.282934050053148 C 25.132124617009477,9.62877923462228 0.9792939356178962,19.50830878875081 0.97929447889328,30.199999380111695" fill="rgb(246, 246, 246)" stroke="rgb(98, 98, 98)" stroke-width="1.5" vector-effect="non-scaling-stroke"/></g><g transform="translate(575.7, 219.65) rotate(0, 0, 0)" width="117" height="19"><text text-decoration="none" x="0" fill="#000000" font-size="11pt" font-family="Arial"  y="15">Manage&#160;</text><text text-decoration="none" x="57" fill="#000000" font-size="11pt" font-family="Arial"  y="15">profile&#160;</text><text text-decoration="none" x="103" fill="#4b4b4b" font-size="10pt" font-family="noto_regular"  y="15"></text></g></g><g id="96pbdnmwm3"><g transform="translate(505 270)"><path d="M 0.97929447889328,30.199999380111695 C 0.9792933082975462,53.23739030060398 106.57988055066723,67.63575993100478 191.06035151515871,56.11706471017024 C 230.26787547835795,50.771219525601104 254.42070615974956,40.89168997147258 254.42070561647415,30.199999380111695 C 254.4207067870699,7.162608459619415 148.82011954470025,-7.235761170781398 64.33964858020875,4.282934050053148 C 25.132124617009477,9.62877923462228 0.9792939356178962,19.50830878875081 0.97929447889328,30.199999380111695" fill="rgb(246, 246, 246)" stroke="rgb(98, 98, 98)" stroke-width="1.5" vector-effect="non-scaling-stroke"/></g><g transform="translate(567.7, 289.65) rotate(0, 0, 0)" width="142" height="19"><text text-decoration="none" x="0" fill="#000000" font-size="11pt" font-family="Arial"  y="15">Access&#160;</text><text text-decoration="none" x="54" fill="#000000" font-size="11pt" font-family="Arial"  y="15">Time&#160;</text><text text-decoration="none" x="92" fill="#000000" font-size="11pt" font-family="Arial"  y="15">Table&#160;</text><text text-decoration="none" x="133" fill="#4b4b4b" font-size="10pt" font-family="noto_regular"  y="15"></text></g></g><g id="10yy7s7qbs"><g transform="translate(500 345)"><path d="M 0.97929447889328,30.199999380111695 C 0.9792933082975462,53.23739030060398 106.57988055066723,67.63575993100478 191.06035151515871,56.11706471017024 C 230.26787547835795,50.771219525601104 254.42070615974956,40.89168997147258 254.42070561647415,30.199999380111695 C 254.4207067870699,7.162608459619415 148.82011954470025,-7.235761170781398 64.33964858020875,4.282934050053148 C 25.132124617009477,9.62877923462228 0.9792939356178962,19.50830878875081 0.97929447889328,30.199999380111695" fill="rgb(246, 246, 246)" stroke="rgb(98, 98, 98)" stroke-width="1.5" vector-effect="non-scaling-stroke"/></g><g transform="translate(565.7, 364.65) rotate(0, 0, 0)" width="137" height="19"><text text-decoration="none" x="0" fill="#000000" font-size="11pt" font-family="Arial"  y="15">Make&#160;</text><text text-decoration="none" x="41" fill="#000000" font-size="11pt" font-family="Arial"  y="15">Reservation&#160;</text><text text-decoration="none" x="124" fill="#4b4b4b" font-size="10pt" font-family="noto_regular"  y="15"></text></g></g><g id="ijmbi6bab1"><g transform="translate(500 410)"><path d="M 0.97929447889328,30.199999380111695 C 0.9792933082975462,53.23739030060398 106.57988055066723,67.63575993100478 191.06035151515871,56.11706471017024 C 230.26787547835795,50.771219525601104 254.42070615974956,40.89168997147258 254.42070561647415,30.199999380111695 C 254.4207067870699,7.162608459619415 148.82011954470025,-7.235761170781398 64.33964858020875,4.282934050053148 C 25.132124617009477,9.62877923462228 0.9792939356178962,19.50830878875081 0.97929447889328,30.199999380111695" fill="rgb(246, 246, 246)" stroke="rgb(98, 98, 98)" stroke-width="1.5" vector-effect="non-scaling-stroke"/></g><g transform="translate(560.7, 429.65) rotate(0, 0, 0)" width="148" height="19"><text text-decoration="none" x="0" fill="#000000" font-size="11pt" font-family="Arial"  y="15">Cancle&#160;</text><text text-decoration="none" x="50" fill="#000000" font-size="11pt" font-family="Arial"  y="15">Reservation&#160;</text><text text-decoration="none" x="133" fill="#4b4b4b" font-size="10pt" font-family="noto_regular"  y="15"></text></g></g><g id="p45ex9081u"><g transform="translate(500 475)"><path d="M 0.97929447889328,30.199999380111695 C 0.9792933082975462,53.23739030060398 106.57988055066723,67.63575993100478 191.06035151515871,56.11706471017024 C 230.26787547835795,50.771219525601104 254.42070615974956,40.89168997147258 254.42070561647415,30.199999380111695 C 254.4207067870699,7.162608459619415 148.82011954470025,-7.235761170781398 64.33964858020875,4.282934050053148 C 25.132124617009477,9.62877923462228 0.9792939356178962,19.50830878875081 0.97929447889328,30.199999380111695" fill="rgb(246, 246, 246)" stroke="rgb(98, 98, 98)" stroke-width="1.5" vector-effect="non-scaling-stroke"/></g><g transform="translate(532.2, 494.65) rotate(0, 0, 0)" width="214" height="19"><text text-decoration="none" x="0" fill="#000000" font-size="11pt" font-family="Arial"  y="15">Request&#160;</text><text text-decoration="none" x="59" fill="#000000" font-size="11pt" font-family="Arial"  y="15">Reservation&#160;</text><text text-decoration="none" x="142" fill="#000000" font-size="11pt" font-family="Arial"  y="15">Cancle&#160;</text><text text-decoration="none" x="192" fill="#4b4b4b" font-size="10pt" font-family="noto_regular"  y="15"></text></g></g><g id="9u0694h8pf"><g transform="translate(500 545)"><path d="M 0.97929447889328,30.199999380111695 C 0.9792933082975462,53.23739030060398 106.57988055066723,67.63575993100478 191.06035151515871,56.11706471017024 C 230.26787547835795,50.771219525601104 254.42070615974956,40.89168997147258 254.42070561647415,30.199999380111695 C 254.4207067870699,7.162608459619415 148.82011954470025,-7.235761170781398 64.33964858020875,4.282934050053148 C 25.132124617009477,9.62877923462228 0.9792939356178962,19.50830878875081 0.97929447889328,30.199999380111695" fill="rgb(246, 246, 246)" stroke="rgb(98, 98, 98)" stroke-width="1.5" vector-effect="non-scaling-stroke"/></g><g transform="translate(568.7, 564.65) rotate(0, 0, 0)" width="132" height="19"><text text-decoration="none" x="0" fill="#000000" font-size="11pt" font-family="Arial"  y="15">Request&#160;</text><text text-decoration="none" x="59" fill="#000000" font-size="11pt" font-family="Arial"  y="15">Booking&#160;</text><text text-decoration="none" x="118" fill="#4b4b4b" font-size="10pt" font-family="noto_regular"  y="15"></text></g></g><g id="2d250owwxp"><g transform="translate(500 610)"><path d="M 0.97929447889328,30.199999380111695 C 0.9792933082975462,53.23739030060398 106.57988055066723,67.63575993100478 191.06035151515871,56.11706471017024 C 230.26787547835795,50.771219525601104 254.42070615974956,40.89168997147258 254.42070561647415,30.199999380111695 C 254.4207067870699,7.162608459619415 148.82011954470025,-7.235761170781398 64.33964858020875,4.282934050053148 C 25.132124617009477,9.62877923462228 0.9792939356178962,19.50830878875081 0.97929447889328,30.199999380111695" fill="rgb(246, 246, 246)" stroke="rgb(98, 98, 98)" stroke-width="1.5" vector-effect="non-scaling-stroke"/></g><g transform="translate(570.7, 629.65) rotate(0, 0, 0)" width="130" height="19"><text text-decoration="none" x="0" fill="#000000" font-size="11pt" font-family="Arial"  y="15">Confirm&#160;</text><text text-decoration="none" x="57" fill="#000000" font-size="11pt" font-family="Arial"  y="15">Booking&#160;</text><text text-decoration="none" x="116" fill="#4b4b4b" font-size="10pt" font-family="noto_regular"  y="15"></text></g></g><g id="2st01d4mho"><g transform="translate(500 675)"><path d="M 0.97929447889328,30.199999380111695 C 0.9792933082975462,53.23739030060398 106.57988055066723,67.63575993100478 191.06035151515871,56.11706471017024 C 230.26787547835795,50.771219525601104 254.42070615974956,40.89168997147258 254.42070561647415,30.199999380111695 C 254.4207067870699,7.162608459619415 148.82011954470025,-7.235761170781398 64.33964858020875,4.282934050053148 C 25.132124617009477,9.62877923462228 0.9792939356178962,19.50830878875081 0.97929447889328,30.199999380111695" fill="rgb(246, 246, 246)" stroke="rgb(98, 98, 98)" stroke-width="1.5" vector-effect="non-scaling-stroke"/></g><g transform="translate(576.7, 694.65) rotate(0, 0, 0)" width="117" height="19"><text text-decoration="none" x="0" fill="#000000" font-size="11pt" font-family="Arial"  y="15">Make&#160;</text><text text-decoration="none" x="41" fill="#000000" font-size="11pt" font-family="Arial"  y="15">payment&#160;</text><text text-decoration="none" x="102" fill="#4b4b4b" font-size="10pt" font-family="noto_regular"  y="15"></text></g></g><g id="5ld89ytnul"><g transform="translate(285 385)"><ellipse cx="20.3985" cy="10.10075" rx="10.19925" ry="10.10075" fill="rgba(255,255,255,1)" stroke="#5e5ca7" stroke-width="1.5" stroke-linecap="round" stroke-linejoin="round"/><path d="M 20.3985,20.2015 L 20.3985,48.483599999999996 L 40.797,80.806 M 20.3985,48.483599999999996 L 0,80.806 M 2.03985,30.30225 L 38.757149999999996,30.30225" fill="none" stroke="#5e5ca7" stroke-width="1.5" stroke-linecap="round" stroke-linejoin="round"/><rect x="0" y="0" width="40.797" height="80.806" fill="rgba(255,255,255,0.01)" stroke="rgba(255,255,255,0.01)" stroke-width="1.5" stroke-linecap="round" stroke-linejoin="round"/></g><g transform="translate(285.3985, 470.806) rotate(0, 20, 0)" width="40" height="19"><text text-decoration="none" x="1" fill="rgb(0, 0, 0)" font-size="9pt" font-family="Arial"  y="15">ADMIN</text><text text-decoration="none" x="39" fill="#4b4b4b" font-size="10pt" font-family="noto_regular"  y="15"></text></g></g><g id="1htidr1r14"><g transform="translate(940 395)"><ellipse cx="20.3985" cy="10.10075" rx="10.19925" ry="10.10075" fill="rgba(255,255,255,1)" stroke="#5e5ca7" stroke-width="1.5" stroke-linecap="round" stroke-linejoin="round"/><path d="M 20.3985,20.2015 L 20.3985,48.483599999999996 L 40.797,80.806 M 20.3985,48.483599999999996 L 0,80.806 M 2.03985,30.30225 L 38.757149999999996,30.30225" fill="none" stroke="#5e5ca7" stroke-width="1.5" stroke-linecap="round" stroke-linejoin="round"/><rect x="0" y="0" width="40.797" height="80.806" fill="rgba(255,255,255,0.01)" stroke="rgba(255,255,255,0.01)" stroke-width="1.5" stroke-linecap="round" stroke-linejoin="round"/></g><g transform="translate(943.8985, 480.806) rotate(0, 16.5, 0)" width="33" height="34"><text text-decoration="none" x="2" fill="rgb(0, 0, 0)" font-size="9pt" font-family="Arial"  y="11">USER</text><text text-decoration="none" x="31" fill="rgb(0, 0, 0)" font-size="9pt" font-family="Arial"  y="11"></text><text text-decoration="none" x="16.5" fill="#4b4b4b" font-size="10pt" font-family="noto_regular"  y="30"></text></g></g><g id="rsju5mjnhh"><g><path d="M 340,393 L 490,165" fill="none" stroke="#000000" stroke-width="1" stroke-linecap="round" stroke-linejoin="round"/><path d="M 490,165 L 477.6097635161966,172.46159403983697 L 485.2207468534808,172.26446478270913 L 488.0524770442459,179.3318003082904 Z" fill="rgb(0,0,0)" stroke="#000000" stroke-width="1" stroke-linecap="round" stroke-linejoin="round"/></g></g><g id="285jnc0jv5"><g><path d="M 345,405 L 495,250" fill="none" stroke="#000000" stroke-width="1" stroke-linecap="round" stroke-linejoin="round"/><path d="M 495,250 L 481.4380617797269,255.02664674006425 L 488.9528834438454,256.2486871080264 L 490.4205885518093,263.71941458401494 Z" fill="rgb(0,0,0)" stroke="#000000" stroke-width="1" stroke-linecap="round" stroke-linejoin="round"/></g></g><g id="29pbud9zjm"><g><path d="M 343,422 L 495,315" fill="none" stroke="#000000" stroke-width="1" stroke-linecap="round" stroke-linejoin="round"/><path d="M 495,315 L 480.73656280148526,317.397437178307 L 487.88948627128434,320.00542742745114 L 487.9318960123677,327.6188451040465 Z" fill="rgb(0,0,0)" stroke="#000000" stroke-width="1" stroke-linecap="round" stroke-linejoin="round"/></g></g><g id="2eysumk866"><g><path d="M 938,438 L 770,170" fill="none" stroke="#000000" stroke-width="1" stroke-linecap="round" stroke-linejoin="round"/><path d="M 770,170 L 771.6322758775805,184.37111760439566 L 774.6185467868032,177.36768177894808 L 782.2233644828294,177.73192773244855 Z" fill="rgb(0,0,0)" stroke="#000000" stroke-width="1" stroke-linecap="round" stroke-linejoin="round"/></g></g><g id="1fyap2pb5k"><g><path d="M 931,442 L 770,235" fill="none" stroke="#000000" stroke-width="1" stroke-linecap="round" stroke-linejoin="round"/><path d="M 770,235 L 773.0744348703481,249.13298255740415 L 775.3385908193001,241.86390248195727 L 782.9413375875522,241.45872488846763 Z" fill="rgb(0,0,0)" stroke="#000000" stroke-width="1" stroke-linecap="round" stroke-linejoin="round"/></g></g><g id="1tdi1cmruk"><g><path d="M 930,451 L 780,315" fill="none" stroke="#000000" stroke-width="1" stroke-linecap="round" stroke-linejoin="round"/><path d="M 780,315 L 785.4649459336067,328.39132972048174 L 786.4420010050408,320.84074757790364 L 793.8610570815157,319.1309130132293 Z" fill="rgb(0,0,0)" stroke="#000000" stroke-width="1" stroke-linecap="round" stroke-linejoin="round"/></g></g><g id="9r7qn9jxjw"><g><path d="M 926,458 L 785,385" fill="none" stroke="#000000" stroke-width="1" stroke-linecap="round" stroke-linejoin="round"/><path d="M 785,385 L 793.7095496277213,396.54716809534534 L 792.7220562568853,388.99794401952215 L 799.4566191429345,385.44666396322117 Z" fill="rgb(0,0,0)" stroke="#000000" stroke-width="1" stroke-linecap="round" stroke-linejoin="round"/></g></g><g id="1njq97cqea"><g><path d="M 931,470 L 770,500" fill="none" stroke="#000000" stroke-width="1" stroke-linecap="round" stroke-linejoin="round"/><path d="M 770,500 L 783.9676031152654,503.75491796905465 L 778.5484753628441,498.40711639201663 L 781.6778229732668,491.46643120699525 Z" fill="rgb(0,0,0)" stroke="#000000" stroke-width="1" stroke-linecap="round" stroke-linejoin="round"/></g></g><g id="aw127o0969"><g><path d="M 928,487 L 780,565" fill="none" stroke="#000000" stroke-width="1" stroke-linecap="round" stroke-linejoin="round"/><path d="M 780,565 L 794.4529713768737,564.4477644350727 L 787.6926514315793,560.9457647860595 L 788.6249829178643,553.3895299231059 Z" fill="rgb(0,0,0)" stroke="#000000" stroke-width="1" stroke-linecap="round" stroke-linejoin="round"/></g></g><g id="7pdy1ywa57"><g><path d="M 939,507 L 775,695" fill="none" stroke="#000000" stroke-width="1" stroke-linecap="round" stroke-linejoin="round"/><path d="M 775,695 L 788.2841443534674,689.2794358201184 L 780.7162251641491,688.4472540801216 L 778.8645311389802,681.0623264202467 Z" fill="rgb(0,0,0)" stroke="#000000" stroke-width="1" stroke-linecap="round" stroke-linejoin="round"/></g></g><g id="2ip30ixmbb"><g transform="translate(500 750)"><path d="M 0.97929447889328,30.199999380111695 C 0.9792933082975462,53.23739030060398 106.57988055066723,67.63575993100478 191.06035151515871,56.11706471017024 C 230.26787547835795,50.771219525601104 254.42070615974956,40.89168997147258 254.42070561647415,30.199999380111695 C 254.4207067870699,7.162608459619415 148.82011954470025,-7.235761170781398 64.33964858020875,4.282934050053148 C 25.132124617009477,9.62877923462228 0.9792939356178962,19.50830878875081 0.97929447889328,30.199999380111695" fill="rgb(246, 246, 246)" stroke="rgb(98, 98, 98)" stroke-width="1.5" vector-effect="non-scaling-stroke"/></g><g transform="translate(587.2, 769.65) rotate(0, 0, 0)" width="87" height="19"><text text-decoration="none" x="0" fill="#000000" font-size="11pt" font-family="Arial"  y="15">ADD&#160;</text><text text-decoration="none" x="34" fill="#000000" font-size="11pt" font-family="Arial"  y="15">Route&#160;</text><text text-decoration="none" x="77" fill="#4b4b4b" font-size="10pt" font-family="noto_regular"  y="15"></text></g></g><g id="2ep73grdkl"><g transform="translate(500 815)"><path d="M 0.97929447889328,30.199999380111695 C 0.9792933082975462,53.23739030060398 106.57988055066723,67.63575993100478 191.06035151515871,56.11706471017024 C 230.26787547835795,50.771219525601104 254.42070615974956,40.89168997147258 254.42070561647415,30.199999380111695 C 254.4207067870699,7.162608459619415 148.82011954470025,-7.235761170781398 64.33964858020875,4.282934050053148 C 25.132124617009477,9.62877923462228 0.9792939356178962,19.50830878875081 0.97929447889328,30.199999380111695" fill="rgb(246, 246, 246)" stroke="rgb(98, 98, 98)" stroke-width="1.5" vector-effect="non-scaling-stroke"/></g><g transform="translate(569.2, 834.65) rotate(0, 0, 0)" width="129" height="19"><text text-decoration="none" x="0" fill="#000000" font-size="11pt" font-family="Arial"  y="15">ADD&#160;</text><text text-decoration="none" x="34" fill="#000000" font-size="11pt" font-family="Arial"  y="15">Travel&#160;</text><text text-decoration="none" x="79" fill="#000000" font-size="11pt" font-family="Arial"  y="15">Date&#160;</text><text text-decoration="none" x="114" fill="#4b4b4b" font-size="10pt" font-family="noto_regular"  y="15"></text></g></g><g id="1xa5qbo2i7"><g><path d="M 349,428 L 490,440" fill="none" stroke="#000000" stroke-width="1" stroke-linecap="round" stroke-linejoin="round"/><path d="M 490,440 L 477.5335597000958,432.6664325196514 L 481.33570717339506,439.26261337645917 L 476.47356182008946,445.1214076097261 Z" fill="rgb(0,0,0)" stroke="#000000" stroke-width="1" stroke-linecap="round" stroke-linejoin="round"/></g></g><g id="1h7vh85hya"><g><path d="M 349,435 L 490,620" fill="none" stroke="#000000" stroke-width="1" stroke-linecap="round" stroke-linejoin="round"/><path d="M 490,620 L 487.0642648656335,605.8375565328313 L 484.7289556543644,613.0840907521803 L 477.1226020974599,613.4147157237096 Z" fill="rgb(0,0,0)" stroke="#000000" stroke-width="1" stroke-linecap="round" stroke-linejoin="round"/></g></g><g id="3fc9caspvt"><g><path d="M 333,476 L 490,755" fill="none" stroke="#000000" stroke-width="1" stroke-linecap="round" stroke-linejoin="round"/><path d="M 490,755 L 489.050207349541,740.5677015115043 L 485.73558779892187,747.4218407382115 L 478.1565560472247,746.6978207031303 Z" fill="rgb(0,0,0)" stroke="#000000" stroke-width="1" stroke-linecap="round" stroke-linejoin="round"/></g></g><g id="191nkv2ds9"><g><path d="M 314.4,494.8 L 485,825" fill="none" stroke="#000000" stroke-width="1" stroke-linecap="round" stroke-linejoin="round"/><path d="M 485,825 L 484.5655850735676,810.5430075945377 L 481.0086001979114,817.2745591169422 L 473.4602155201665,816.2806697562888 Z" fill="rgb(0,0,0)" stroke="#000000" stroke-width="1" stroke-linecap="round" stroke-linejoin="round"/></g></g></svg>